<?xml version="1.0" encoding="UTF-8"?>
<svg id="Layer_1" xmlns="http://www.w3.org/2000/svg" version="1.1" viewBox="0 0 256 256">
  <!-- Generator: Adobe Illustrator 29.3.1, SVG Export Plug-In . SVG Version: 2.1.0 Build 151)  -->
  <defs>
    <style>
      .st0 {
        fill: #b5ca99;
      }
    </style>
  </defs>
  <path class="st0" d="M203.92,161.21v-8.63c6.42.3,13.81,1.69,18.5,5.7,3.56,3.04,5.29,7.29,5.29,13,0,15.49-18.4,25.67-34.57,31.27,6.85-12.23,10.78-26.33,10.78-41.35M153.03,239.05h-.37c12.22-5.27,22.97-13.31,31.41-23.36,16.46-4.02,53.71-16.23,53.71-44.4,0-8.73-2.98-15.69-8.85-20.69-7.11-6.06-17.13-7.81-25.02-8.11v-3.03h-114.94v38.93h9.95l4.67,7.92v27.43h-30.47v-27.43l4.67-7.92h9.95v-38.93h-55.17v21.75c0,34.89,21.09,64.84,51.21,77.83h-.01v6.91H18.58v5.06h26.77v2.38h165.07v-2.38h27.36v-5.06h-84.75v-6.91Z"/>
  <path class="st0" d="M118.14,72.37c9.68-20.05,5.39-52.78-9.13-69.37,2.07,12.45,2.91,32.04-1.24,44.48-4.15,12.45-11.75,22.82-13.14,35.95-1.38,15.9,4.15,31.11,13.83,42.87-2.77-18.67.69-37.34,9.68-53.93"/>
  <path class="st0" d="M134.27,131.77c1.21-13.86,7.24-18.48,9.65-30.81,5.43-18.48,1.21-44.67-5.43-55.45,0,3.08-1.21,6.16-1.81,9.24-4.83,12.32-11.46,24.65-10.26,44.67.6,12.32,3.62,24.64,7.84,32.35"/>
</svg>